<?xml version="1.0" encoding="UTF-8" standalone="no"?>
<!DOCTYPE svg PUBLIC "-//W3C//DTD SVG 1.1//EN"
 "http://www.w3.org/Graphics/SVG/1.1/DTD/svg11.dtd">
<!-- Generated by graphviz version 2.47.1 (20210515.0534)
 -->
<!-- Title: plan Pages: 1 -->
<svg width="866pt" height="260pt"
 viewBox="0.00 0.00 865.92 260.00" xmlns="http://www.w3.org/2000/svg" xmlns:xlink="http://www.w3.org/1999/xlink">
<g id="graph0" class="graph" transform="scale(1 1) rotate(0) translate(4 256)">
<title>plan</title>
<polygon fill="white" stroke="transparent" points="-4,4 -4,-256 861.92,-256 861.92,4 -4,4"/>
<!-- n0 -->
<g id="node1" class="node">
<title>n0</title>
<ellipse fill="none" stroke="black" cx="428.96" cy="-18" rx="182.77" ry="18"/>
<text text-anchor="middle" x="428.96" y="-14.3" font-family="Times,serif" font-size="14.00">PROJECT $_1 AS name, $_2 AS attr</text>
</g>
<!-- n1 -->
<g id="node2" class="node">
<title>n1</title>
<ellipse fill="none" stroke="black" cx="428.96" cy="-90" rx="428.92" ry="18"/>
<text text-anchor="middle" x="428.96" y="-86.3" font-family="Times,serif" font-size="14.00">PROJECT name as $_1 + UNNEST fields PROJECT attr as $_2 WHERE attr LIKE &quot;tag%&quot;</text>
</g>
<!-- n1&#45;&gt;n0 -->
<g id="edge1" class="edge">
<title>n1&#45;&gt;n0</title>
<path fill="none" stroke="black" d="M428.96,-71.7C428.96,-63.98 428.96,-54.71 428.96,-46.11"/>
<polygon fill="black" stroke="black" points="432.46,-46.1 428.96,-36.1 425.46,-46.1 432.46,-46.1"/>
</g>
<!-- n2 -->
<g id="node3" class="node">
<title>n2</title>
<ellipse fill="none" stroke="black" cx="428.96" cy="-162" rx="85.59" ry="18"/>
<text text-anchor="middle" x="428.96" y="-158.3" font-family="Times,serif" font-size="14.00">WHERE id = 100</text>
</g>
<!-- n2&#45;&gt;n1 -->
<g id="edge2" class="edge">
<title>n2&#45;&gt;n1</title>
<path fill="none" stroke="black" d="M428.96,-143.7C428.96,-135.98 428.96,-126.71 428.96,-118.11"/>
<polygon fill="black" stroke="black" points="432.46,-118.1 428.96,-108.1 425.46,-118.1 432.46,-118.1"/>
</g>
<!-- n3 -->
<g id="node4" class="node">
<title>n3</title>
<ellipse fill="none" stroke="black" cx="428.96" cy="-234" rx="27" ry="18"/>
<text text-anchor="middle" x="428.96" y="-230.3" font-family="Times,serif" font-size="14.00">o</text>
</g>
<!-- n3&#45;&gt;n2 -->
<g id="edge3" class="edge">
<title>n3&#45;&gt;n2</title>
<path fill="none" stroke="black" d="M428.96,-215.7C428.96,-207.98 428.96,-198.71 428.96,-190.11"/>
<polygon fill="black" stroke="black" points="432.46,-190.1 428.96,-180.1 425.46,-190.1 432.46,-190.1"/>
</g>
</g>
</svg>
